<svg xmlns="http://www.w3.org/2000/svg" xmlns:xlink="http://www.w3.org/1999/xlink" width="500" zoomAndPan="magnify" viewBox="0 0 375 374.999991" height="500" preserveAspectRatio="xMidYMid meet" version="1.2"><defs><clipPath id="7b197580f9"><path d="M 0 108 L 375 108 L 375 275.214844 L 0 275.214844 Z M 0 108 "/></clipPath></defs><g id="045010e08c"><g clip-rule="nonzero" clip-path="url(#7b197580f9)"><path style=" stroke:none;fill-rule:nonzero;fill:#121212;fill-opacity:1;" d="M 297.660156 111.734375 C 269.421875 118.601562 238.117188 153.160156 219.894531 155.910156 C 219.515625 155.40625 219.140625 154.882812 218.792969 154.3125 C 212.824219 142.789062 209.242188 129.050781 210.394531 127.832031 C 204.253906 134.335938 196.203125 141.355469 187.492188 142.0625 C 178.777344 141.40625 170.675781 134.429688 164.5 127.960938 C 165.660156 129.175781 162.148438 142.933594 156.257812 154.488281 C 155.910156 155.0625 155.539062 155.578125 155.167969 156.089844 C 136.945312 153.453125 104.835938 121.226562 77.164062 112.378906 C 37.605469 99.714844 9.9375 122.085938 0.0195312 144.035156 C 13.488281 143.246094 32.230469 147.863281 46.765625 158.304688 C 62.515625 169.628906 62.101562 182.570312 58.089844 196.441406 C 84.652344 194.027344 125.476562 202.273438 130.851562 237.574219 C 155.914062 233.296875 178.890625 262.066406 187.148438 274.625 C 187.007812 275.210938 187.996094 275.210938 187.855469 274.625 C 196.039062 262.019531 219.609375 233.117188 244.691406 237.25 C 249.867188 201.910156 290.640625 193.429688 317.21875 195.6875 C 313.125 181.839844 312.636719 168.894531 328.324219 157.488281 C 342.792969 146.960938 361.507812 142.238281 374.980469 142.945312 C 364.941406 121.058594 331.089844 103.609375 297.660156 111.734375 Z M 297.660156 111.734375 "/></g></g></svg>